<?xml version="1.0" encoding="UTF-8" standalone="no"?>
<!-- Created with Inkscape (http://www.inkscape.org/) -->

<svg
   xmlns:dc="http://purl.org/dc/elements/1.1/"
   xmlns:cc="http://creativecommons.org/ns#"
   xmlns:rdf="http://www.w3.org/1999/02/22-rdf-syntax-ns#"
   xmlns:svg="http://www.w3.org/2000/svg"
   xmlns="http://www.w3.org/2000/svg"
   xmlns:xlink="http://www.w3.org/1999/xlink"
   xmlns:sodipodi="http://sodipodi.sourceforge.net/DTD/sodipodi-0.dtd"
   xmlns:inkscape="http://www.inkscape.org/namespaces/inkscape"
   width="500"
   height="500"
   viewBox="0 0 132.29166 132.29167"
   version="1.1"
   id="svg8"
   inkscape:version="0.92.5 (2060ec1f9f, 2020-04-08)"
   sodipodi:docname="forecastfusion.svg">
  <defs
     id="defs2">
    <linearGradient
       inkscape:collect="always"
       id="linearGradient924">
      <stop
         style="stop-color:#5f5fff;stop-opacity:1;"
         offset="0"
         id="stop920" />
      <stop
         style="stop-color:#00ffff;stop-opacity:1"
         offset="1"
         id="stop922" />
    </linearGradient>
    <linearGradient
       inkscape:collect="always"
       xlink:href="#linearGradient924"
       id="linearGradient926"
       x1="-148.98737"
       y1="223.81085"
       x2="-67.960709"
       y2="33.31086"
       gradientUnits="userSpaceOnUse" />
    <linearGradient
       inkscape:collect="always"
       xlink:href="#linearGradient924"
       id="linearGradient996"
       x1="-85.919739"
       y1="151.63333"
       x2="7.8925152"
       y2="151.63333"
       gradientUnits="userSpaceOnUse" />
    <linearGradient
       inkscape:collect="always"
       xlink:href="#linearGradient924"
       id="linearGradient1000"
       x1="-163.35046"
       y1="100.40297"
       x2="-50.573799"
       y2="100.40297"
       gradientUnits="userSpaceOnUse" />
    <linearGradient
       inkscape:collect="always"
       xlink:href="#linearGradient924"
       id="linearGradient1026"
       x1="9.0066786"
       y1="213.22752"
       x2="-90.84967"
       y2="46.918003"
       gradientUnits="userSpaceOnUse" />
    <linearGradient
       inkscape:collect="always"
       xlink:href="#linearGradient924"
       id="linearGradient1030"
       gradientUnits="userSpaceOnUse"
       x1="9.0066786"
       y1="213.22752"
       x2="-90.84967"
       y2="46.918003" />
    <linearGradient
       inkscape:collect="always"
       xlink:href="#linearGradient924"
       id="linearGradient1032"
       gradientUnits="userSpaceOnUse"
       x1="9.0066786"
       y1="213.22752"
       x2="-90.84967"
       y2="46.918003" />
    <linearGradient
       inkscape:collect="always"
       xlink:href="#linearGradient924"
       id="linearGradient1034"
       gradientUnits="userSpaceOnUse"
       x1="9.0066786"
       y1="213.22752"
       x2="-90.84967"
       y2="46.918003" />
    <linearGradient
       inkscape:collect="always"
       xlink:href="#linearGradient924"
       id="linearGradient1036"
       gradientUnits="userSpaceOnUse"
       x1="9.0066786"
       y1="213.22752"
       x2="-90.84967"
       y2="46.918003" />
    <linearGradient
       inkscape:collect="always"
       xlink:href="#linearGradient924"
       id="linearGradient1038"
       gradientUnits="userSpaceOnUse"
       x1="9.0066786"
       y1="213.22752"
       x2="-90.84967"
       y2="46.918003" />
    <linearGradient
       inkscape:collect="always"
       xlink:href="#linearGradient924"
       id="linearGradient1040"
       gradientUnits="userSpaceOnUse"
       x1="9.0066786"
       y1="213.22752"
       x2="-90.84967"
       y2="46.918003" />
    <linearGradient
       inkscape:collect="always"
       xlink:href="#linearGradient924"
       id="linearGradient1042"
       gradientUnits="userSpaceOnUse"
       x1="9.0066786"
       y1="213.22752"
       x2="-90.84967"
       y2="46.918003" />
    <linearGradient
       inkscape:collect="always"
       xlink:href="#linearGradient924"
       id="linearGradient1044"
       gradientUnits="userSpaceOnUse"
       x1="9.0066786"
       y1="213.22752"
       x2="-90.84967"
       y2="46.918003" />
    <linearGradient
       inkscape:collect="always"
       xlink:href="#linearGradient924"
       id="linearGradient1046"
       gradientUnits="userSpaceOnUse"
       x1="9.0066786"
       y1="213.22752"
       x2="-90.84967"
       y2="46.918003" />
    <linearGradient
       inkscape:collect="always"
       xlink:href="#linearGradient924"
       id="linearGradient1048"
       gradientUnits="userSpaceOnUse"
       x1="9.0066786"
       y1="213.22752"
       x2="-90.84967"
       y2="46.918003" />
    <linearGradient
       inkscape:collect="always"
       xlink:href="#linearGradient924"
       id="linearGradient1050"
       gradientUnits="userSpaceOnUse"
       x1="9.0066786"
       y1="213.22752"
       x2="-90.84967"
       y2="46.918003" />
    <linearGradient
       inkscape:collect="always"
       xlink:href="#linearGradient924"
       id="linearGradient1052"
       gradientUnits="userSpaceOnUse"
       x1="9.0066786"
       y1="213.22752"
       x2="-90.84967"
       y2="46.918003" />
    <linearGradient
       inkscape:collect="always"
       xlink:href="#linearGradient924"
       id="linearGradient1054"
       gradientUnits="userSpaceOnUse"
       x1="9.0066786"
       y1="213.22752"
       x2="-90.84967"
       y2="46.918003" />
    <linearGradient
       inkscape:collect="always"
       xlink:href="#linearGradient924"
       id="linearGradient1056"
       gradientUnits="userSpaceOnUse"
       x1="9.0066786"
       y1="213.22752"
       x2="-90.84967"
       y2="46.918003" />
    <linearGradient
       inkscape:collect="always"
       xlink:href="#linearGradient924"
       id="linearGradient57"
       gradientUnits="userSpaceOnUse"
       x1="-148.98737"
       y1="223.81085"
       x2="-67.960709"
       y2="33.31086" />
    <linearGradient
       inkscape:collect="always"
       xlink:href="#linearGradient924"
       id="linearGradient59"
       gradientUnits="userSpaceOnUse"
       x1="-148.98737"
       y1="223.81085"
       x2="-67.960709"
       y2="33.31086" />
  </defs>
  <sodipodi:namedview
     id="base"
     pagecolor="#ffffff"
     bordercolor="#666666"
     borderopacity="1.0"
     inkscape:pageopacity="0.0"
     inkscape:pageshadow="2"
     inkscape:zoom="0.24748737"
     inkscape:cx="297.85564"
     inkscape:cy="92.003668"
     inkscape:document-units="mm"
     inkscape:current-layer="layer1"
     showgrid="false"
     inkscape:window-width="1366"
     inkscape:window-height="737"
     inkscape:window-x="0"
     inkscape:window-y="0"
     inkscape:window-maximized="1"
     units="px" />
  <metadata
     id="metadata5">
    <rdf:RDF>
      <cc:Work
         rdf:about="">
        <dc:format>image/svg+xml</dc:format>
        <dc:type
           rdf:resource="http://purl.org/dc/dcmitype/StillImage" />
        <dc:title></dc:title>
      </cc:Work>
    </rdf:RDF>
  </metadata>
  <g
     inkscape:label="Layer 1"
     inkscape:groupmode="layer"
     id="layer1"
     transform="translate(0,-164.70832)">
    <g
       style="fill:url(#linearGradient926);fill-opacity:1"
       id="g45"
       transform="translate(33.943233,67.61919)">
      <path
         id="path41"
         d="m -147.96677,146.75606 c -0.93011,0 -1.66646,0.34861 -2.28649,1.00776 -0.65915,0.61959 -0.96821,1.39445 -0.96821,2.2865 v 36.50756 c 0,0.89058 0.31053,1.66647 0.96821,2.28651 0.65915,0.61959 1.39591,0.93012 2.32532,0.93012 0.96821,0 1.78262,-0.31053 2.4028,-0.93012 0.61959,-0.6196 0.96821,-1.39446 0.96821,-2.32532 v -36.46875 c 0,-0.93013 -0.31053,-1.70529 -0.96821,-2.32532 -0.65914,-0.6196 -1.47267,-0.96821 -2.44162,-0.96821 z"
         inkscape:connector-curvature="0"
         style="fill:url(#linearGradient57);fill-opacity:1;stroke-width:3.87552953"
         sodipodi:nodetypes="ccsscscssccc" />
      <path
         style="fill:url(#linearGradient59);fill-opacity:1;stroke-width:3.87552953"
         inkscape:connector-curvature="0"
         d="m -163.35047,137.56888 c 0,0.93013 0.31053,1.74395 0.93013,2.36399 1.70513,0.69723 2.82905,1.04584 3.41041,1.04584 h 30.53923 c 0.93012,0 1.70513,-0.34861 2.32532,-1.00776 0.65914,-0.65914 0.96821,-1.47268 0.96821,-2.36413 0,-0.89058 -0.31053,-1.66647 -0.96821,-2.2865 -0.65915,-0.6196 -1.43401,-0.93013 -2.32532,-0.93013 h -30.53923 c -1.00776,0 -2.01522,0.31053 -2.94535,0.93013 -0.93013,0.61959 -1.39446,1.39445 -1.39446,2.24783 z m 5.38697,-11.62659 c 0,0.93013 0.31053,1.66647 0.96822,2.2865 0.58151,0.65915 1.31829,1.00776 2.24783,1.00776 h 36.43007 c 0.93013,0 1.70514,-0.31053 2.36399,-0.96821 0.65915,-0.65914 0.96821,-1.43401 0.96821,-2.32532 0,-0.93012 -0.31053,-1.70528 -0.96821,-2.36413 -0.65914,-0.65915 -1.43401,-0.96821 -2.36399,-0.96821 h -36.43007 c -0.89058,0 -1.66647,0.31053 -2.2865,0.96821 -0.6196,0.65914 -0.93013,1.43401 -0.93013,2.36413 z m 4.06927,-9.18497 c 0,0.34862 0.2329,0.50388 0.65915,0.50388 h 5.38697 c 0.46433,0 0.73678,-0.15526 0.8525,-0.50388 1.00776,-2.05404 2.4028,-3.75932 4.22439,-5.1157 1.82143,-1.35637 3.87548,-2.13153 6.12331,-2.40295 h 2.09271 c 0.42625,0 0.6196,-0.2329 0.6196,-0.73678 l 0.27098,-2.1702 c 0.27098,-2.75171 1.16303,-5.27081 2.67408,-7.557308 1.51149,-2.24784 3.4879,-4.0306 5.92952,-5.30949 2.44162,-1.27874 5.03822,-1.93774 7.8286,-1.93774 4.22439,0 7.90608,1.434 11.04522,4.26306 3.13914,2.82919 4.92191,6.355908 5.38697,10.541478 l 0.27099,2.1702 c 0,0.4658 0.23289,0.73678 0.697226,0.73678 h 6.200799 c 3.449233,0 6.394587,1.24066 8.913694,3.72051 2.519106,2.48044 3.759325,5.38712 3.759325,8.79754 0,3.4879 -1.240658,6.47207 -3.759325,8.95251 -2.480291,2.48029 -5.464461,3.72051 -8.952364,3.72051 H -120.3723 c -0.42625,0 -0.65914,0.2329 -0.65914,0.73678 v 5.15436 c 0,0.46434 0.23289,0.69723 0.65914,0.69723 h 26.702415 c 3.487903,0 6.704678,-0.85249 9.650032,-2.59659 2.945354,-1.70528 5.309488,-4.06942 7.014624,-7.01477 1.705282,-2.94535 2.596739,-6.16213 2.596739,-9.65003 0,-2.8292 -0.541964,-5.38698 -1.666612,-7.78978 3.022986,-3.72051 4.495663,-7.98371 4.495663,-12.71184 0,-3.643018 -0.930127,-7.014618 -2.751565,-10.153908 -1.821584,-3.13914 -4.301875,-5.61943 -7.441017,-7.44101 -3.139289,-1.82144 -6.549706,-2.75157 -10.192729,-2.75157 -2.829051,0 -5.541946,0.58151 -8.13854,1.74395 -2.59659,1.16303 -4.84442,2.75171 -6.74349,4.84443 -3.21663,-1.66647 -6.70468,-2.51911 -10.46386,-2.51911 -5.46446,0 -10.3477,1.70528 -14.57209,5.07703 -4.22424,3.3716 -6.93714,7.71229 -8.09972,13.021778 -3.29427,0.81441 -6.20095,2.44147 -8.72006,4.84442 -2.5191,2.40281 -4.26305,5.27068 -5.23185,8.56494 0.0732,0.0732 0.0439,0.15526 0.0439,0.27098 z m 2.75172,33.17449 c 0,0.93012 0.34861,1.66646 1.00776,2.2865 0.61959,0.65914 1.39445,0.96821 2.2865,0.96821 h 36.50756 c 0.89058,0 1.66647,-0.31053 2.2865,-0.96821 0.6196,-0.65915 0.93013,-1.39592 0.93013,-2.32532 0,-0.96821 -0.31053,-1.78262 -0.93013,-2.4028 -0.6196,-0.6196 -1.39446,-0.96821 -2.32532,-0.96821 h -36.46874 c -0.93013,0 -1.70529,0.31053 -2.32532,0.96821 -0.6196,0.65914 -0.96821,1.47267 -0.96821,2.44162 z m 29.02758,-75.611578 c 0,0.96822 0.31053,1.74396 0.93013,2.32532 l 2.48043,2.55778 c 0.6196,0.61959 1.39446,0.93013 2.32532,0.93013 1.00776,0 1.78277,-0.31054 2.4028,-0.93013 0.6196,-0.6196 0.93013,-1.39446 0.93013,-2.36399 0,-0.89204 -0.31053,-1.66647 -0.93013,-2.28665 l -2.5191,-2.51911 c -0.65915,-0.65915 -1.39446,-0.96822 -2.20902,-0.96822 -0.96821,0 -1.78277,0.31054 -2.44162,0.96822 -0.65914,0.65914 -0.96967,1.39446 -0.96967,2.28665 z m 20.77289,16.97475 c 2.55792,-2.44147 5.735733,-3.68169 9.495057,-3.68169 3.759325,0 6.975954,1.31829 9.650033,3.99178 2.635409,2.63541 3.991783,5.85204 3.991783,9.650028 0,2.5966 -0.581512,4.92192 -1.782621,7.01477 -3.643023,-3.68183 -8.177502,-5.54209 -13.564476,-5.54209 h -1.163026 c -1.123476,-4.456848 -3.332931,-8.254838 -6.62719,-11.432798 z m 6.200796,-20.2302 c 0,0.93013 0.310531,1.66646 0.968211,2.28651 0.659145,0.6196 1.394459,0.89204 2.325318,0.89204 0.968211,0 1.743952,-0.31053 2.325318,-0.89204 0.581512,-0.58152 0.890578,-1.35638 0.890578,-2.32533 v -7.90608 c 0,-0.93013 -0.31053,-1.74395 -0.890578,-2.36399 -0.619597,-0.65914 -1.394458,-0.96821 -2.325318,-0.96821 -0.892043,0 -1.666466,0.31053 -2.325318,0.96821 -0.659145,0.65915 -0.968211,1.43401 -0.968211,2.36399 z m 21.392924,8.83622 c 0,0.93012 0.310531,1.70528 0.968211,2.32531 0.464332,0.6196 1.278742,0.93013 2.325318,0.93013 1.045844,0 1.821438,-0.31053 2.286502,-0.93013 l 5.658395,-5.58076 c 0.619597,-0.58151 0.930128,-1.39446 0.930128,-2.4028 0,-0.89205 -0.310531,-1.66648 -0.968212,-2.32533 -0.659145,-0.65915 -1.434007,-0.96821 -2.325317,-0.96821 -0.890579,0 -1.705282,0.31053 -2.364135,0.89204 l -5.50313,5.77442 c -0.659145,0.65914 -1.00776,1.39446 -1.00776,2.28665 z m 3.100473,45.963798 c 0,0.93013 0.310531,1.70514 0.892043,2.32532 l 2.557777,2.44148 c 0.930127,0.69723 1.743951,1.04584 2.364134,1.04584 0.619596,0 1.434007,-0.34861 2.363988,-1.04584 0.619596,-0.6196 0.930127,-1.39446 0.930127,-2.32532 0,-0.89058 -0.310531,-1.66647 -0.930127,-2.36399 l -2.480291,-2.36413 c -0.736778,-0.65915 -1.550163,-1.00776 -2.519106,-1.00776 -0.930127,0 -1.666466,0.31053 -2.286502,0.93012 -0.581512,0.65915 -0.892043,1.43401 -0.892043,2.36414 z m 5.580763,-24.49339 c 0,0.93012 0.348614,1.74395 1.045844,2.36413 0.697229,0.65915 1.472677,0.96821 2.325317,0.96821 h 7.867265 c 0.892043,0 1.627796,-0.31053 2.286648,-0.96821 0.659145,-0.65914 0.968211,-1.43401 0.968211,-2.36413 0,-0.8525 -0.310531,-1.588978 -0.930127,-2.209018 -0.619597,-0.58151 -1.395923,-0.89204 -2.286502,-0.89204 h -7.867411 c -0.930127,0 -1.743951,0.31053 -2.402804,0.89204 -0.659145,0.6196 -1.007759,1.356378 -1.007759,2.209018 z"
         id="path43" />
    </g>
    <g
       id="g1018"
       style="fill:url(#linearGradient1026);fill-opacity:1"
       transform="matrix(0.6865696,0,0,0.6865696,118.13433,145.65967)"
       inkscape:export-filename="/home/kashyap/Computer Science/ReactJS/ForecastFusion/public/logo.png"
       inkscape:export-xdpi="200"
       inkscape:export-ydpi="200">
      <g
         style="fill:url(#linearGradient1044);fill-opacity:1"
         id="g39">
        <path
           id="path917"
           d="m -163.35047,137.56888 c 0,0.93013 0.31053,1.74395 0.93013,2.36399 1.70513,0.69723 2.82905,1.04584 3.41041,1.04584 h 30.53923 c 0.93012,0 1.70513,-0.34861 2.32532,-1.00776 0.65914,-0.65914 0.96821,-1.47268 0.96821,-2.36413 0,-0.89058 -0.31053,-1.66647 -0.96821,-2.2865 -0.65915,-0.6196 -1.43401,-0.93013 -2.32532,-0.93013 h -30.53923 c -1.00776,0 -2.01522,0.31053 -2.94535,0.93013 -0.93013,0.61959 -1.39446,1.39445 -1.39446,2.24783 z"
           style="fill:url(#linearGradient1030);fill-opacity:1;stroke-width:3.87552953"
           inkscape:connector-curvature="0" />
        <path
           id="path913"
           transform="scale(0.26458333)"
           d="m -347.58398,305.79688 c -10.69248,0 -20.94587,2.19636 -30.75977,6.58984 -9.81388,4.3957 -18.30874,10.40105 -25.48633,18.31055 -12.15734,-6.29847 -25.3409,-9.52149 -39.54883,-9.52149 -20.65307,0 -39.10997,6.44583 -55.07617,19.18945 -15.96563,12.74306 -26.21928,29.14945 -30.61328,49.2168 -12.45078,3.07809 -23.43598,9.22658 -32.95703,18.30859 -9.52101,9.08149 -16.11183,19.92035 -19.77344,32.3711 0.27666,0.27666 0.16602,0.58802 0.16602,1.02539 h -0.0156 c 0,1.31762 0.88117,1.9043 2.49219,1.9043 h 20.35937 c 1.75495,0 2.78529,-0.58668 3.22266,-1.9043 3.80886,-7.7633 9.08205,-14.20751 15.9668,-19.33399 6.88414,-5.12643 14.64684,-8.05619 23.14258,-9.08203 h 7.91015 c 1.61103,0 2.3418,-0.88072 2.3418,-2.78515 l 1.02344,-8.20313 c 1.02417,-10.40016 4.39636,-19.92062 10.10742,-28.5625 5.71272,-8.49577 13.18198,-15.2328 22.41015,-20.0664 9.22818,-4.83304 19.04158,-7.32422 29.5879,-7.32422 15.96619,0 29.88162,5.41882 41.74609,16.11133 11.86447,10.693 18.60362,24.02232 20.36133,39.84179 l 1.02344,8.20313 c 0,1.7605 0.87979,2.78515 2.63476,2.78515 h 23.4375 c 13.03647,0 24.16842,4.68789 33.68945,14.06055 9.52103,9.37489 14.20703,20.36218 14.20703,33.25195 0,13.18262 -4.68765,24.46105 -14.20703,33.83594 -9.37432,9.37433 -20.65331,14.06055 -33.83593,14.06055 h -100.92383 c -1.61103,0 -2.49024,0.88073 -2.49024,2.78515 v 19.48047 c 0,1.75499 0.87921,2.63672 2.49024,2.63672 h 100.92383 c 13.18262,0 25.34061,-3.22258 36.47265,-9.81445 11.13205,-6.44515 20.06711,-15.37969 26.51172,-26.51172 6.44516,-11.13203 9.81445,-23.29004 9.81445,-36.47266 0,-10.69304 -2.04819,-20.36191 -6.29882,-29.44336 11.42546,-14.06177 16.99023,-30.17287 16.99023,-48.04296 0,-13.76889 -3.51426,-26.51192 -10.39844,-38.37696 -6.88472,-11.86446 -16.26052,-21.24029 -28.125,-28.125 -11.86503,-6.88418 -24.75453,-10.39843 -38.52343,-10.39843 z m 0.44531,25.33984 c 14.20847,0 26.3659,4.98336 36.47265,15.08789 9.96061,9.9606 15.0879,22.11806 15.0879,36.47266 0,9.81392 -2.19866,18.60173 -6.73829,26.51171 -13.7689,-13.91557 -30.90736,-20.94726 -51.26757,-20.94726 h -4.39454 c -4.24609,-16.84433 -12.59668,-31.19799 -25.04687,-43.20899 9.66773,-9.2276 21.67825,-13.91601 35.88672,-13.91601 z"
           style="fill:url(#linearGradient1032);fill-opacity:1;stroke-width:14.64767075"
           inkscape:connector-curvature="0" />
        <path
           id="path909"
           d="m -122.11493,74.320232 c 0,0.96822 0.31053,1.74396 0.93013,2.32532 l 2.48043,2.55778 c 0.6196,0.61959 1.39446,0.93013 2.32532,0.93013 1.00776,0 1.78277,-0.31054 2.4028,-0.93013 0.6196,-0.6196 0.93013,-1.39446 0.93013,-2.36399 0,-0.89204 -0.31053,-1.66647 -0.93013,-2.28665 l -2.5191,-2.51911 c -0.65915,-0.65915 -1.39446,-0.96822 -2.20902,-0.96822 -0.96821,0 -1.78277,0.31054 -2.44162,0.96822 -0.65914,0.65914 -0.96967,1.39446 -0.96967,2.28665 z"
           style="fill:url(#linearGradient1034);fill-opacity:1;stroke-width:3.87552953"
           inkscape:connector-curvature="0" />
        <path
           id="path905"
           d="m -95.141244,71.064782 c 0,0.93013 0.310531,1.66646 0.968211,2.28651 0.659145,0.6196 1.394459,0.89204 2.325318,0.89204 0.968211,0 1.743952,-0.31053 2.325318,-0.89204 0.581512,-0.58152 0.890578,-1.35638 0.890578,-2.32533 v -7.90608 c 0,-0.93013 -0.31053,-1.74395 -0.890578,-2.36399 -0.619597,-0.65914 -1.394458,-0.96821 -2.325318,-0.96821 -0.892043,0 -1.666466,0.31053 -2.325318,0.96821 -0.659145,0.65915 -0.968211,1.43401 -0.968211,2.36399 z"
           style="fill:url(#linearGradient1036);fill-opacity:1;stroke-width:3.87552953"
           inkscape:connector-curvature="0" />
        <path
           id="path903"
           d="m -73.74832,79.901002 c 0,0.93012 0.310531,1.70528 0.968211,2.32531 0.464332,0.6196 1.278742,0.93013 2.325318,0.93013 1.045844,0 1.821438,-0.31053 2.286502,-0.93013 l 5.658395,-5.58076 c 0.619597,-0.58151 0.930128,-1.39446 0.930128,-2.4028 0,-0.89205 -0.310531,-1.66648 -0.968212,-2.32533 -0.659145,-0.65915 -1.434007,-0.96821 -2.325317,-0.96821 -0.890579,0 -1.705282,0.31053 -2.364135,0.89204 l -5.50313,5.77442 c -0.659145,0.65914 -1.00776,1.39446 -1.00776,2.28665 z"
           style="fill:url(#linearGradient1038);fill-opacity:1;stroke-width:3.87552953"
           inkscape:connector-curvature="0" />
        <path
           id="path901"
           d="m -70.647847,125.8648 c 0,0.93013 0.310531,1.70514 0.892043,2.32532 l 2.557777,2.44148 c 0.930127,0.69723 1.743951,1.04584 2.364134,1.04584 0.619596,0 1.434007,-0.34861 2.363988,-1.04584 0.619596,-0.6196 0.930127,-1.39446 0.930127,-2.32532 0,-0.89058 -0.310531,-1.66647 -0.930127,-2.36399 l -2.480291,-2.36413 c -0.736778,-0.65915 -1.550163,-1.00776 -2.519106,-1.00776 -0.930127,0 -1.666466,0.31053 -2.286502,0.93012 -0.581512,0.65915 -0.892043,1.43401 -0.892043,2.36414 z"
           style="fill:url(#linearGradient1040);fill-opacity:1;stroke-width:3.87552953"
           inkscape:connector-curvature="0" />
        <path
           id="path20"
           d="m -65.067084,101.37141 c 0,0.93012 0.348614,1.74395 1.045844,2.36413 0.697229,0.65915 1.472677,0.96821 2.325317,0.96821 h 7.867265 c 0.892043,0 1.627796,-0.31053 2.286648,-0.96821 0.659145,-0.65914 0.968211,-1.43401 0.968211,-2.36413 0,-0.8525 -0.310531,-1.588978 -0.930127,-2.209018 -0.619597,-0.58151 -1.395923,-0.89204 -2.286502,-0.89204 h -7.867411 c -0.930127,0 -1.743951,0.31053 -2.402804,0.89204 -0.659145,0.6196 -1.007759,1.356378 -1.007759,2.209018 z"
           style="fill:url(#linearGradient1042);fill-opacity:1;stroke-width:3.87552953"
           inkscape:connector-curvature="0" />
      </g>
      <g
         style="fill:url(#linearGradient1054);fill-opacity:1"
         id="g978">
        <path
           sodipodi:nodetypes="ccsscscssccc"
           style="fill:url(#linearGradient1046);fill-opacity:1;stroke-width:3.87552953"
           inkscape:connector-curvature="0"
           d="m -147.96677,146.75606 c -0.93011,0 -1.66646,0.34861 -2.28649,1.00776 -0.65915,0.61959 -0.96821,1.39445 -0.96821,2.2865 v 36.50756 c 0,0.89058 0.31053,1.66647 0.96821,2.28651 0.65915,0.61959 1.39591,0.93012 2.32532,0.93012 0.96821,0 1.78262,-0.31053 2.4028,-0.93012 0.61959,-0.6196 0.96821,-1.39446 0.96821,-2.32532 v -36.46875 c 0,-0.93013 -0.31053,-1.70529 -0.96821,-2.32532 -0.65914,-0.6196 -1.47267,-0.96821 -2.44162,-0.96821 z"
           id="path10" />
        <path
           style="fill:url(#linearGradient1048);fill-opacity:1;stroke-width:3.87552953"
           d="m -157.9635,125.94229 c 0,0.93013 0.31053,1.66647 0.96822,2.2865 0.58151,0.65915 1.31829,1.00776 2.24783,1.00776 h 36.43007 c 0.93013,0 1.70514,-0.31053 2.36399,-0.96821 0.65915,-0.65914 0.96821,-1.43401 0.96821,-2.32532 0,-0.93012 -0.31053,-1.70528 -0.96821,-2.36413 -0.65914,-0.65915 -1.43401,-0.96821 -2.36399,-0.96821 h -36.43007 c -0.89058,0 -1.66647,0.31053 -2.2865,0.96821 -0.6196,0.65914 -0.93013,1.43401 -0.93013,2.36413 z"
           id="path915"
           inkscape:connector-curvature="0" />
        <path
           style="fill:url(#linearGradient1050);fill-opacity:1;stroke-width:3.87552953"
           d="m -151.14251,149.93181 c 0,0.93012 0.34861,1.66646 1.00776,2.2865 0.61959,0.65914 1.39445,0.96821 2.2865,0.96821 h 36.50756 c 0.89058,0 1.66647,-0.31053 2.2865,-0.96821 0.6196,-0.65915 0.93013,-1.39592 0.93013,-2.32532 0,-0.96821 -0.31053,-1.78262 -0.93013,-2.4028 -0.6196,-0.6196 -1.39446,-0.96821 -2.32532,-0.96821 h -36.46874 c -0.93013,0 -1.70529,0.31053 -2.32532,0.96821 -0.6196,0.65914 -0.96821,1.47267 -0.96821,2.44162 z"
           id="path911"
           inkscape:connector-curvature="0" />
        <text
           xml:space="preserve"
           style="font-style:normal;font-variant:normal;font-weight:normal;font-stretch:normal;font-size:51.66783524px;line-height:1.25;font-family:Dyuthi;-inkscape-font-specification:'Dyuthi, Normal';font-variant-ligatures:normal;font-variant-caps:normal;font-variant-numeric:normal;font-feature-settings:normal;text-align:start;letter-spacing:0px;word-spacing:0px;writing-mode:lr-tb;text-anchor:start;fill:url(#linearGradient1052);fill-opacity:1;stroke:none;stroke-width:1.23618877"
           x="-140.54694"
           y="188.04221"
           id="text68"><tspan
             sodipodi:role="line"
             id="tspan66"
             x="-140.54694"
             y="188.04221"
             style="font-style:normal;font-variant:normal;font-weight:normal;font-stretch:normal;font-size:51.66783524px;font-family:Dyuthi;-inkscape-font-specification:'Dyuthi, Normal';font-variant-ligatures:normal;font-variant-caps:normal;font-variant-numeric:normal;font-feature-settings:normal;text-align:start;writing-mode:lr-tb;text-anchor:start;fill:url(#linearGradient1052);fill-opacity:1;stroke-width:1.23618877">orecast</tspan></text>
      </g>
      <text
         id="text72"
         y="163.5089"
         x="-88.25013"
         style="font-style:normal;font-variant:normal;font-weight:normal;font-stretch:normal;font-size:38.1811409px;line-height:1.25;font-family:Dyuthi;-inkscape-font-specification:'Dyuthi, Normal';font-variant-ligatures:normal;font-variant-caps:normal;font-variant-numeric:normal;font-feature-settings:normal;text-align:start;letter-spacing:0px;word-spacing:0px;writing-mode:lr-tb;text-anchor:start;fill:url(#linearGradient1056);fill-opacity:1;stroke:none;stroke-width:0.99299163"
         xml:space="preserve"><tspan
           style="font-style:normal;font-variant:normal;font-weight:normal;font-stretch:normal;font-size:38.1811409px;font-family:Dyuthi;-inkscape-font-specification:'Dyuthi, Normal';font-variant-ligatures:normal;font-variant-caps:normal;font-variant-numeric:normal;font-feature-settings:normal;text-align:start;writing-mode:lr-tb;text-anchor:start;fill:url(#linearGradient1056);fill-opacity:1;stroke-width:0.99299163"
           y="163.5089"
           x="-88.25013"
           id="tspan70"
           sodipodi:role="line">fusion</tspan></text>
    </g>
  </g>
</svg>
